<?xml version="1.0" encoding="UTF-8" standalone="no"?>
<!DOCTYPE svg  PUBLIC '-//W3C//DTD SVG 1.1//EN'  'http://www.w3.org/Graphics/SVG/1.1/DTD/svg11.dtd'>
<svg id="Layer_1" xmlns="http://www.w3.org/2000/svg" xml:space="preserve" viewBox="0 0 50 50" version="1.1" xmlns:xlink="http://www.w3.org/1999/xlink" enable-background="new 0 0 50 50"><path id="wtf" d="m40 20.2v-0.1-0.1-0.1-0.1-0.1-0.1s0-0.1-0.1-0.1v-0.1l-0.1-0.1h-0.1l-0.1-0.1h-0.1l-13.7-9.1c-0.4-0.3-1-0.3-1.4 0l-13.7 9.1h-0.1l-0.1 0.1h-0.1l-0.1 0.1v0.1s0 0.1-0.1 0.1v0.1 0.1 0.1 0.1 0.1 0.1 0.1 0.2 9.1 0.2 0.1 0.1 0.1 0.1 0.1 0.1 0.1s0 0.1 0.1 0.1v0.1l0.1 0.1 0.1 0.1 0.1 0.1h0.1l13.7 9.1c0.2 0.1 0.5 0.2 0.7 0.2s0.5-0.1 0.7-0.2l13.7-9.1h0.1s0.1 0 0.1-0.1l0.1-0.1 0.1-0.1v-0.1s0-0.1 0.1-0.1v-0.1-0.1-0.1-0.1-0.1-0.1-0.1-0.2-9.1-0.3zm-15 7.8l-4.6-3 4.6-3 4.6 3-4.6 3zm-1.3-8.3l-5.6 3.7-4.5-3 10.1-6.7v6zm-7.9 5.3l-3.2 2.2v-4.3l3.2 2.1zm2.3 1.5l5.6 3.7v6l-10.1-6.7 4.5-3zm8.2 3.8l5.6-3.7 4.5 3-10.1 6.7v-6zm7.9-5.3l3.2-2.2v4.3l-3.2-2.1zm-2.3-1.6l-5.6-3.7v-6l10.1 6.7-4.5 3z" fill="#000"/><path d="m25 1c-13.3 0-24 10.7-24 24s10.7 24 24 24 24-10.7 24-24-10.7-24-24-24zm0 43c-10.5 0-19-8.5-19-19s8.5-19 19-19 19 8.5 19 19-8.5 19-19 19z" fill="#000"/></svg>
