<svg viewBox="0 0 50 50" xmlns="http://www.w3.org/2000/svg"><path d="M40 20.2v-.6s0-.1-.1-.1v-.1l-.1-.1h-.1l-.1-.1h-.1l-13.7-9.1c-.4-.3-1-.3-1.4 0l-13.7 9.1h-.1l-.1.1h-.1l-.1.1v.1s0 .1-.1.1v10.9s0 .1.1.1v.1l.1.1.1.1.1.1h.1l13.7 9.1c.2.1.5.2.7.2.2 0 .5-.1.7-.2L39.5 31h.1s.1 0 .1-.1l.1-.1.1-.1v-.1s0-.1.1-.1V20.2zM25 28l-4.6-3 4.6-3 4.6 3-4.6 3zm-1.3-8.3l-5.6 3.7-4.5-3 10.1-6.7v6zM15.8 25l-3.2 2.2v-4.3l3.2 2.1zm2.3 1.5l5.6 3.7v6l-10.1-6.7 4.5-3zm8.2 3.8l5.6-3.7 4.5 3-10.1 6.7v-6zm7.9-5.3l3.2-2.2v4.3L34.2 25zm-2.3-1.6l-5.6-3.7v-6l10.1 6.7-4.5 3z" fill="#232323"/><path d="M25 1C11.7 1 1 11.7 1 25s10.7 24 24 24 24-10.7 24-24S38.3 1 25 1zm0 43C14.5 44 6 35.5 6 25S14.5 6 25 6s19 8.5 19 19-8.5 19-19 19z"/></svg>